<?xml version="1.0" encoding="utf-8"?>
<!-- Generator: Adobe Illustrator 17.0.0, SVG Export Plug-In . SVG Version: 6.00 Build 0)  -->
<!DOCTYPE svg PUBLIC "-//W3C//DTD SVG 1.1//EN" "http://www.w3.org/Graphics/SVG/1.1/DTD/svg11.dtd">
<svg version="1.1" id="Layer_1" xmlns="http://www.w3.org/2000/svg" xmlns:xlink="http://www.w3.org/1999/xlink" x="0px" y="0px"
	 width="50px" height="50px" viewBox="0 0 50 50" enable-background="new 0 0 50 50" xml:space="preserve">
<g>
	<polygon fill="#3C3B4C" points="42.354,30.404 29.981,9.006 22.833,13.112 32.783,30.404 	"/>
	<polygon fill="#3C3B4C" points="17.211,30.404 13.429,23.848 6.281,27.981 7.668,30.404 	"/>
	<rect x="20.309" y="33.206" fill="#3C3B4C" width="2.034" height="8.23"/>
	<path fill="#3C3B4C" d="M47.412,36.572c-1.332-0.351-3.042-0.296-3.042-1.137c0.046-0.573,0.592-0.74,1.415-0.74
		c1.221,0,1.304,0.684,1.322,1.119h2.071c-0.139-1.609-1.443-2.691-3.505-2.691c-2.127,0-3.403,1.165-3.403,2.635
		c0,0.869,0.462,1.628,1.147,1.979c0.536,0.277,1.276,0.435,2.145,0.573c0.869,0.139,1.683,0.194,1.738,0.842
		c0,0.407-0.435,0.952-1.359,0.952c-1.387-0.028-1.711-0.786-1.711-1.304h-2.145c0.074,1.655,1.443,2.83,3.717,2.83
		c2.044,0,3.699-0.786,3.699-2.83C49.502,37.691,48.689,36.896,47.412,36.572z"/>
	<path fill="#3C3B4C" d="M47.995,31.745h0.25c0.139,0,0.176,0.111,0.176,0.333c0,0.065,0,0.102,0.037,0.139h0.176
		c-0.037-0.074-0.037-0.176-0.037-0.324c0-0.185-0.102-0.213-0.176-0.213c0.102-0.037,0.176-0.148,0.176-0.296
		c0-0.222-0.176-0.324-0.388-0.324H47.81v1.156h0.185V31.745z M47.995,31.236h0.25c0.102,0,0.176,0.074,0.176,0.185
		c0,0.111-0.148,0.148-0.25,0.148h-0.176V31.236z"/>
	<path fill="#3C3B4C" d="M48.171,32.688c0.583,0,1.073-0.472,1.073-1.045c0-0.583-0.49-1.054-1.073-1.054
		c-0.573,0-1.036,0.472-1.036,1.054C47.135,32.217,47.597,32.688,48.171,32.688z M48.171,30.728c0.49,0,0.934,0.416,0.934,0.916
		c0,0.49-0.444,0.906-0.934,0.906s-0.897-0.416-0.897-0.906C47.274,31.144,47.681,30.728,48.171,30.728z"/>
	<polygon fill="#3C3B4C" points="21.807,16.515 14.659,20.639 20.309,30.395 20.309,32.438 22.343,32.438 22.343,30.404 
		29.824,30.404 	"/>
	<path fill="#3C3B4C" d="M17.266,33.853c-0.712-0.49-1.526-0.731-2.423-0.731c-2.367,0-4.291,1.868-4.291,4.235
		c0,2.34,1.923,4.272,4.291,4.272c0.897,0,1.711-0.277,2.423-0.74v0.546h2.034V30.404h-2.034V33.853z M14.899,39.698
		c-1.304,0-2.395-1.063-2.395-2.34s1.091-2.367,2.395-2.367c1.276,0,2.367,1.091,2.367,2.367S16.175,39.698,14.899,39.698z"/>
	<path fill="#3C3B4C" d="M29.88,33.853c-0.712-0.49-1.526-0.731-2.451-0.731c-2.34,0-4.263,1.868-4.263,4.235
		c0,2.34,1.923,4.272,4.263,4.272c0.925,0,1.766-0.277,2.451-0.74v0.546h2.007V30.404H29.88V33.853z M27.485,39.698
		c-1.248,0-2.34-1.063-2.34-2.34s1.091-2.367,2.34-2.367c1.304,0,2.395,1.091,2.395,2.367S28.789,39.698,27.485,39.698z"/>
	<path fill="#3C3B4C" d="M39.256,33.853c-0.684-0.49-1.526-0.731-2.423-0.731c-2.33,0-4.263,1.868-4.263,4.235
		c0,2.34,1.933,4.272,4.263,4.272c0.925,0,1.738-0.277,2.423-0.74v0.546h2.034v-8.239h-2.034V33.853z M36.917,39.698
		c-1.276,0-2.367-1.063-2.367-2.34s1.091-2.367,2.367-2.367c1.276,0,2.34,1.091,2.34,2.367S38.193,39.698,36.917,39.698z"/>
	<path fill="#3C3B4C" d="M7.834,33.853c-0.712-0.49-1.554-0.731-2.451-0.731c-2.34,0-4.272,1.868-4.272,4.235
		c0,2.34,1.933,4.272,4.272,4.272c0.925,0,1.766-0.277,2.451-0.74v0.546h2.007v-8.239H7.834V33.853z M5.439,39.698
		c-1.276,0-2.367-1.063-2.367-2.34s1.091-2.367,2.367-2.367c1.304,0,2.395,1.091,2.395,2.367S6.743,39.698,5.439,39.698z"/>
</g>
</svg>
