<?xml version="1.0" encoding="utf-8"?>
<!-- Generator: Adobe Illustrator 17.0.0, SVG Export Plug-In . SVG Version: 6.00 Build 0)  -->
<!DOCTYPE svg PUBLIC "-//W3C//DTD SVG 1.1//EN" "http://www.w3.org/Graphics/SVG/1.1/DTD/svg11.dtd">
<svg version="1.1" id="Layer_1" xmlns="http://www.w3.org/2000/svg" xmlns:xlink="http://www.w3.org/1999/xlink" x="0px" y="0px"
	 width="50px" height="50px" viewBox="0 0 50 50" enable-background="new 0 0 50 50" xml:space="preserve">
<g>
	<path fill="#3C3B4C" d="M48.188,4.102c-0.037-0.068-0.071-0.139-0.131-0.209c-0.065-0.079-0.151-0.152-0.26-0.246
		c-0.212-0.175-0.54-0.435-1.029-0.563c-0.482-0.13-1.007-0.129-1.554-0.118c-0.552,0.028-1.138,0.116-1.766,0.243
		c-0.336,0.077-0.667,0.167-1.009,0.281c-0.344,0.11-0.694,0.247-1.045,0.409c-1.423,0.633-2.857,1.669-4.146,2.965
		c-0.649,0.646-1.256,1.367-1.867,2.114c-0.615,0.746-1.219,1.532-1.822,2.347c-0.611,0.81-1.203,1.662-1.814,2.525
		c-0.601,0.868-1.211,1.774-1.813,2.628c-1.226,1.732-2.599,3.445-4.169,4.946c-0.781,0.754-1.621,1.439-2.496,2.052
		c-0.871,0.621-1.804,1.138-2.787,1.5c-0.984,0.358-2.021,0.53-3.052,0.526l-0.194-0.005l-0.097-0.002c0.008,0-0.053-0.001,0.013,0
		l-0.027-0.002l-0.054-0.004l-0.217-0.014c-0.07-0.005-0.154-0.008-0.197-0.018c-0.199-0.027-0.431-0.064-0.647-0.12
		c-0.429-0.112-0.808-0.28-1.11-0.5c-0.605-0.43-0.947-1.062-1.084-1.86c-0.113-0.799-0.052-1.698,0.121-2.599
		c0.046-0.225,0.101-0.45,0.166-0.673c0.034-0.111,0.062-0.224,0.101-0.334l0.054-0.166l0.013-0.042
		c0.019-0.045-0.019,0.039-0.011,0.021l0.009-0.024l0.036-0.094l0.073-0.188l0.036-0.094l0.03-0.068l0.116-0.273
		c0.1-0.204,0.199-0.409,0.317-0.61c0.455-0.811,1.045-1.569,1.671-2.26c1.274-1.378,2.796-2.389,4.282-3.096
		c1.491-0.712,2.981-1.095,4.319-1.212c1.339-0.13,2.522-0.009,3.473,0.182c0.478,0.091,0.894,0.219,1.259,0.321
		c0.358,0.123,0.665,0.226,0.908,0.322c0.482,0.209,0.738,0.32,0.738,0.32l0.523-1.095c0,0-0.277-0.124-0.797-0.357
		c-0.264-0.108-0.593-0.234-0.981-0.378c-0.396-0.125-0.848-0.277-1.372-0.393c-1.04-0.24-2.344-0.455-3.847-0.38
		c-1.497,0.071-3.195,0.363-4.919,1.046c-1.729,0.673-3.467,1.708-5.134,3.063c-0.829,0.687-1.64,1.458-2.367,2.393
		c-0.184,0.23-0.357,0.48-0.53,0.733c-0.088,0.137-0.177,0.287-0.262,0.433l-0.063,0.109l-0.047,0.089l-0.095,0.178l-0.047,0.089
		l-0.012,0.022l-0.031,0.068l-0.024,0.052l-0.095,0.21c-0.065,0.139-0.122,0.283-0.179,0.428c-0.113,0.289-0.215,0.587-0.306,0.892
		c-0.372,1.212-0.509,2.588-0.175,4.003c0.17,0.704,0.445,1.421,0.893,2.065c0.436,0.648,1.035,1.208,1.705,1.6
		c0.672,0.395,1.397,0.62,2.099,0.74c0.35,0.061,0.695,0.093,1.075,0.107c0.101,0.006,0.163,0.003,0.238,0.003l0.218-0.002
		l0.149-0.002l0.121-0.007l0.242-0.014c1.292-0.078,2.579-0.327,3.799-0.742c1.222-0.407,2.384-0.959,3.45-1.623
		c0.534-0.332,1.044-0.692,1.527-1.076c0.487-0.381,0.952-0.779,1.398-1.189c0.896-0.819,1.717-1.684,2.486-2.565
		c0.773-0.88,1.49-1.774,2.169-2.676c0.691-0.912,1.286-1.789,1.897-2.644c0.599-0.858,1.184-1.697,1.754-2.514
		c0.57-0.812,1.125-1.596,1.664-2.345c0.543-0.746,1.083-1.445,1.59-2.114c1.022-1.327,1.955-2.516,2.982-3.345
		c0.505-0.417,1.052-0.743,1.556-0.976c0.545-0.246,1.066-0.411,1.529-0.503c0.117-0.025,0.226-0.037,0.336-0.051
		c0.108-0.008,0.21-0.003,0.309,0.004c0.191,0.031,0.36,0.084,0.488,0.17c0.258,0.157,0.434,0.377,0.636,0.551
		c0.097,0.087,0.191,0.174,0.283,0.233c0.1,0.063,0.198,0.108,0.273,0.127c0.149,0.038,0.25,0.026,0.25,0.026l0.396-0.515
		C48.277,4.338,48.263,4.237,48.188,4.102z"/>
	<path fill="#3C3B4C" d="M46.066,22.175c-0.014-0.025-0.026-0.046-0.035-0.063c-0.019-0.034-0.029-0.05-0.029-0.05l-0.228-0.196
		c0,0-0.018-0.008-0.054-0.024c-0.018-0.008-0.04-0.018-0.066-0.03c-0.024-0.01-0.041-0.013-0.067-0.022
		c-0.052-0.018-0.099-0.027-0.133-0.017c-0.031,0.012-0.066,0.026-0.107,0.043c-0.172,0.06-0.396,0.154-0.68,0.324
		c-0.573,0.324-1.49,0.793-2.754,1.261c-1.273,0.439-2.883,0.829-4.751,1.214c-1.862,0.388-4.014,0.767-6.316,1.387
		c-0.035,0.009-0.071,0.02-0.105,0.029c0.044-0.065,0.09-0.135,0.133-0.199c0.306-0.437,0.604-0.863,0.894-1.277
		c0.293-0.411,0.579-0.806,0.86-1.184c0.563-0.755,1.097-1.449,1.606-2.071c0.511-0.62,0.994-1.169,1.434-1.652
		c0.876-0.973,1.674-1.577,2.236-1.842c0.28-0.134,0.506-0.195,0.616-0.226c0.072-0.017,0.161-0.02,0.204-0.027
		c0.048-0.005,0.073-0.008,0.073-0.008l-0.024-1.106c0,0-0.025-0.002-0.073-0.005c-0.053-0.002-0.11-0.012-0.227-0.011
		c-0.269,0.007-0.606,0.04-1.019,0.161c-0.829,0.237-1.889,0.82-3.021,1.733c-1.138,0.914-2.304,2.201-3.528,3.725
		c-0.305,0.382-0.614,0.779-0.927,1.187c-0.157,0.207-0.316,0.417-0.477,0.63c-0.157,0.21-0.315,0.423-0.476,0.639
		c-0.595,0.813-1.205,1.674-1.823,2.558c-1.199,0.375-2.431,0.778-3.698,1.191c-1.291,0.433-2.621,0.87-3.962,1.366
		c-1.349,0.476-2.718,0.988-4.102,1.527c-1.384,0.536-2.784,1.115-4.183,1.706c-0.752,0.309-1.484,0.714-2.166,1.164
		c-0.687,0.449-1.333,0.954-1.942,1.498c-1.223,1.085-2.304,2.31-3.298,3.617c-0.495,0.664-0.95,1.33-1.407,2.096l-0.087,0.152
		l-0.099,0.191L2.218,41.64l-0.016,0.033c-0.01,0.024,0-0.007-0.028,0.063l-0.062,0.137c-0.086,0.191-0.173,0.396-0.253,0.607
		c-0.158,0.424-0.304,0.874-0.375,1.384c-0.071,0.505-0.082,1.083,0.106,1.721c0.18,0.634,0.66,1.305,1.243,1.667
		c0.287,0.194,0.58,0.32,0.863,0.416c0.289,0.093,0.54,0.152,0.833,0.192c0.545,0.078,0.94,0.063,1.377,0.073
		c0.863-0.012,1.737-0.063,2.593-0.231c0.853-0.168,1.699-0.39,2.498-0.701c0.8-0.305,1.57-0.67,2.29-1.08
		c0.726-0.404,1.417-0.842,2.064-1.313c0.657-0.462,1.268-0.948,1.886-1.444c0.301-0.247,0.56-0.47,0.87-0.741
		c0.288-0.262,0.574-0.523,0.86-0.782c2.245-2.118,4.095-4.421,5.732-6.64c1.633-2.225,3.031-4.398,4.319-6.372
		c0.173-0.267,0.34-0.518,0.509-0.776c0.57-0.148,1.132-0.291,1.681-0.43c2.291-0.545,4.391-1.044,6.253-1.486
		c0.937-0.231,1.814-0.463,2.624-0.686c0.811-0.224,1.549-0.46,2.222-0.671c0.674-0.21,1.277-0.416,1.794-0.64
		c0.517-0.223,0.945-0.468,1.278-0.704c0.34-0.225,0.54-0.511,0.651-0.706c0.027-0.05,0.051-0.097,0.068-0.138
		c0.015-0.043,0.01-0.095-0.009-0.149C46.08,22.217,46.077,22.199,46.066,22.175z M22.601,33.408
		c-0.811,1.052-1.699,2.076-2.631,3.091c-0.933,1.014-1.958,1.967-3.019,2.897c-0.271,0.226-0.542,0.453-0.815,0.68
		c-0.286,0.227-0.572,0.455-0.86,0.684c-0.558,0.434-1.136,0.88-1.728,1.283c-1.179,0.822-2.397,1.551-3.682,2.069
		c-0.637,0.275-1.299,0.467-1.971,0.625c-0.67,0.167-1.364,0.246-2.066,0.295c-0.347,0.013-0.739,0.037-0.975,0.009
		c-0.222-0.016-0.449-0.075-0.524-0.123c-0.049-0.022-0.071-0.038-0.093-0.06c-0.022-0.022-0.048-0.047-0.072-0.107
		c-0.048-0.116-0.086-0.341-0.073-0.617c0.008-0.274,0.051-0.593,0.124-0.921c0.071-0.311,0.188-0.736,0.276-0.939
		c0.274-0.628,0.687-1.276,1.106-1.887c0.845-1.234,1.834-2.373,2.912-3.366c1.08-0.997,2.253-1.836,3.519-2.44
		c1.373-0.654,2.719-1.286,4.057-1.898c1.335-0.612,2.663-1.176,3.969-1.713c1.311-0.524,2.603-1.015,3.874-1.454
		c0.675-0.235,1.343-0.451,2.005-0.654C24.899,30.337,23.805,31.872,22.601,33.408z"/>
</g>
</svg>
