<?xml version="1.0" encoding="utf-8"?>
<!-- Generator: Adobe Illustrator 17.0.0, SVG Export Plug-In . SVG Version: 6.00 Build 0)  -->
<!DOCTYPE svg PUBLIC "-//W3C//DTD SVG 1.1//EN" "http://www.w3.org/Graphics/SVG/1.1/DTD/svg11.dtd">
<svg version="1.1" id="Layer_1" xmlns="http://www.w3.org/2000/svg" xmlns:xlink="http://www.w3.org/1999/xlink" x="0px" y="0px"
	 width="50px" height="50px" viewBox="0 0 50 50" enable-background="new 0 0 50 50" xml:space="preserve">
<g id="Layer_9">
	<g>
		<path fill="#535168" d="M38.24,36.935H11.759c-2.713,0-4.921-2.208-4.921-4.921V17.987c0-2.714,2.208-4.922,4.921-4.922H38.24
			c2.714,0,4.922,2.208,4.922,4.922v14.026C43.162,34.727,40.954,36.935,38.24,36.935z M11.759,14.807
			c-1.753,0-3.18,1.427-3.18,3.181v14.026c0,1.753,1.427,3.179,3.18,3.179H38.24c1.754,0,3.18-1.426,3.18-3.179V17.987
			c0-1.753-1.426-3.181-3.18-3.181L11.759,14.807z"/>
		<path fill="#535168" d="M24.509,30.837c-1.315,0-2.55-0.512-3.48-1.442L8.492,16.858l1.231-1.231l12.537,12.537
			c0.601,0.6,1.399,0.932,2.248,0.932c0.849,0,1.648-0.332,2.248-0.932l13.518-13.517l1.231,1.231L27.989,29.395
			C27.059,30.325,25.824,30.837,24.509,30.837z"/>
	</g>
</g>
</svg>
