<?xml version="1.0" encoding="utf-8"?>
<!-- Generator: Adobe Illustrator 17.0.0, SVG Export Plug-In . SVG Version: 6.00 Build 0)  -->
<!DOCTYPE svg PUBLIC "-//W3C//DTD SVG 1.1//EN" "http://www.w3.org/Graphics/SVG/1.1/DTD/svg11.dtd">
<svg version="1.1" id="Layer_1" xmlns="http://www.w3.org/2000/svg" xmlns:xlink="http://www.w3.org/1999/xlink" x="0px" y="0px"
	 width="97px" height="97px" viewBox="0 0 97 97" enable-background="new 0 0 97 97" xml:space="preserve">
<g>
	<path fill="#535267" d="M22.983,79.961l3.435-2.643l27.788-42.808C47.632,39.726,22.983,79.961,22.983,79.961z"/>
	<path fill="#535267" d="M61.383,12.406c-0.594,0.416-1.168,0.832-1.629,1.376c-4.033,4.741-5.924,13.167-5.924,13.167
		c-0.649-2.033,0.598-6.288,1.792-9.578c-8.358,7.534-15.763,14.364-19.56,21.962c-2.559,5.12-3.105,11.066-3.105,11.066
		l-0.236-5.926C20.134,65.179,20.81,80.756,20.81,80.756l-4.933,10.601l3.613-3.729l2.404-4.164l2.257-3.372
		C44.275,69.729,58.04,47.961,58.04,47.961l-7.729,0.273c13.317-4.844,24.572-28.456,24.572-28.456
		C87.045-2.938,64.531,10.198,61.383,12.406z M25.95,77.276l-2.026-0.857c0,0,21.234-34.438,30.281-41.91L25.95,77.276z"/>
</g>
</svg>
