<?xml version="1.0" encoding="utf-8"?>
<!-- Generator: Adobe Illustrator 17.0.0, SVG Export Plug-In . SVG Version: 6.00 Build 0)  -->
<!DOCTYPE svg PUBLIC "-//W3C//DTD SVG 1.1//EN" "http://www.w3.org/Graphics/SVG/1.1/DTD/svg11.dtd">
<svg version="1.1" id="Layer_1" xmlns="http://www.w3.org/2000/svg" xmlns:xlink="http://www.w3.org/1999/xlink" x="0px" y="0px"
	 width="50px" height="50px" viewBox="0 0 50 50" enable-background="new 0 0 50 50" xml:space="preserve">
<g>
	<path fill="#3C3B4C" d="M10.409,19.062c-3.712,0-6.722,3.009-6.722,6.722c0,3.712,3.009,6.722,6.722,6.722
		c3.712,0,6.722-3.009,6.722-6.722C17.131,22.072,14.121,19.062,10.409,19.062z M10.409,31.389c-3.091,0-5.606-2.514-5.606-5.605
		s2.515-5.606,5.606-5.606s5.606,2.515,5.606,5.606S13.5,31.389,10.409,31.389z"/>
	<path fill="#3C3B4C" d="M25.197,19.062c-3.712,0-6.722,3.009-6.722,6.722c0,3.712,3.009,6.722,6.722,6.722
		c3.712,0,6.722-3.009,6.722-6.722C31.918,22.072,28.909,19.062,25.197,19.062z M25.197,31.389c-3.091,0-5.606-2.514-5.606-5.605
		s2.515-5.606,5.606-5.606s5.606,2.515,5.606,5.606S28.288,31.389,25.197,31.389z"/>
	<path fill="#3C3B4C" d="M39.984,19.062c-3.712,0-6.722,3.009-6.722,6.722c0,3.712,3.009,6.722,6.722,6.722
		c3.712,0,6.722-3.009,6.722-6.722C46.706,22.072,43.696,19.062,39.984,19.062z M39.984,31.389c-3.091,0-5.606-2.514-5.606-5.605
		s2.515-5.606,5.606-5.606c3.091,0,5.606,2.515,5.606,5.606S43.075,31.389,39.984,31.389z"/>
</g>
</svg>
