<?xml version="1.0" encoding="utf-8"?>
<!-- Generator: Adobe Illustrator 17.0.0, SVG Export Plug-In . SVG Version: 6.00 Build 0)  -->
<!DOCTYPE svg PUBLIC "-//W3C//DTD SVG 1.1//EN" "http://www.w3.org/Graphics/SVG/1.1/DTD/svg11.dtd">
<svg version="1.1" id="Layer_1" xmlns="http://www.w3.org/2000/svg" xmlns:xlink="http://www.w3.org/1999/xlink" x="0px" y="0px"
	 width="50px" height="50px" viewBox="0 0 50 50" enable-background="new 0 0 50 50" xml:space="preserve">
<g>
	<path fill="#3C3B4C" d="M30.991,30.752c1.429-0.348,3.457-0.774,5.581-1.002c0.096-0.485,0.148-0.979,0.148-1.484
		c0-0.189-0.008-0.376-0.022-0.563V25.01C35.704,27.36,33.667,29.37,30.991,30.752z"/>
	<path fill="#3C3B4C" d="M22.477,32.081c7.867,0,14.244-4.633,14.244-10.348s-6.377-10.347-14.244-10.347S8.232,16.019,8.232,21.733
		C8.232,27.448,14.61,32.081,22.477,32.081z M10.597,21.732c0-1.664,1.856-3.012,4.146-3.012s4.146,1.349,4.146,3.012
		c0,1.664-1.856,3.012-4.146,3.012C12.453,24.745,10.597,23.396,10.597,21.732z M34.357,21.732c0,1.664-1.857,3.012-4.147,3.012
		s-4.146-1.349-4.146-3.012s1.856-3.012,4.146-3.012S34.357,20.069,34.357,21.732z M18.329,27.351c0-1.663,1.857-3.012,4.146-3.012
		c2.29,0,4.147,1.349,4.147,3.012c0,1.664-1.857,3.012-4.147,3.012C20.186,30.363,18.329,29.015,18.329,27.351z M21.42,21.733
		c0-0.424,0.473-0.768,1.057-0.768c0.584,0,1.057,0.344,1.057,0.768c0,0.424-0.473,0.768-1.057,0.768
		C21.893,22.501,21.42,22.157,21.42,21.733z M26.623,16.116c0,1.664-1.857,3.012-4.147,3.012c-2.29,0-4.146-1.349-4.146-3.012
		c0-1.664,1.857-3.012,4.146-3.012C24.766,13.103,26.623,14.452,26.623,16.116z"/>
	<path fill="#3C3B4C" d="M37.573,30.101c-3.828,0.348-8.644,1.579-10.757,2.156c-1.374,0.309-2.831,0.477-4.34,0.477
		c-6.676,0-12.341-3.26-14.228-7.737v2.808c-0.009,0.153-0.016,0.307-0.016,0.462c0,5.715,6.377,10.348,14.244,10.348
		c2.587,0,5.01-0.503,7.101-1.379c7.847-2.052,12.191-1.104,12.191-1.104v-5.837C40.781,29.966,39.275,29.946,37.573,30.101z"/>
</g>
</svg>
