<?xml version="1.0" encoding="utf-8"?>
<!-- Generator: Adobe Illustrator 17.0.0, SVG Export Plug-In . SVG Version: 6.00 Build 0)  -->
<!DOCTYPE svg PUBLIC "-//W3C//DTD SVG 1.1//EN" "http://www.w3.org/Graphics/SVG/1.1/DTD/svg11.dtd">
<svg version="1.1" id="Layer_1" xmlns="http://www.w3.org/2000/svg" xmlns:xlink="http://www.w3.org/1999/xlink" x="0px" y="0px"
	 width="50px" height="50px" viewBox="0 0 50 50" enable-background="new 0 0 50 50" xml:space="preserve">
<g>
	<g>
		<path fill="#535267" d="M36.506,44.283H14.097c-0.368,0-0.666-0.298-0.666-0.666V7c0-0.368,0.298-0.666,0.666-0.666h22.409
			c0.368,0,0.666,0.298,0.666,0.666v36.617C37.172,43.985,36.874,44.283,36.506,44.283z M14.763,42.952H35.84V7.666H14.763V42.952z"
			/>
	</g>
	<g>
		<path fill="#535267" d="M25.302,42.341c-1.32,0-2.395-1.075-2.395-2.395c0-1.32,1.075-2.395,2.395-2.395s2.395,1.075,2.395,2.395
			C27.697,41.266,26.622,42.341,25.302,42.341z M25.302,38.883c-0.586,0-1.063,0.477-1.063,1.063c0,0.587,0.477,1.063,1.063,1.063
			s1.063-0.477,1.063-1.063S25.888,38.883,25.302,38.883z"/>
	</g>
	<g>
		<path fill="#535267" d="M28.187,10.812h-5.77c-0.368,0-0.666-0.298-0.666-0.666c0-0.368,0.298-0.666,0.666-0.666h5.77
			c0.368,0,0.666,0.298,0.666,0.666C28.852,10.514,28.554,10.812,28.187,10.812z"/>
	</g>
	<g>
		<path fill="#535267" d="M34.256,37.107H16.311c-0.368,0-0.666-0.298-0.666-0.666V12.178c0-0.368,0.298-0.666,0.666-0.666h17.945
			c0.368,0,0.666,0.298,0.666,0.666v24.264C34.922,36.809,34.624,37.107,34.256,37.107z M16.977,35.776H33.59V12.844H16.977V35.776z
			"/>
	</g>
</g>
</svg>
