<?xml version="1.0" encoding="utf-8"?>
<!-- Generator: Adobe Illustrator 17.0.0, SVG Export Plug-In . SVG Version: 6.00 Build 0)  -->
<!DOCTYPE svg PUBLIC "-//W3C//DTD SVG 1.1//EN" "http://www.w3.org/Graphics/SVG/1.1/DTD/svg11.dtd">
<svg version="1.1" id="Layer_1" xmlns="http://www.w3.org/2000/svg" xmlns:xlink="http://www.w3.org/1999/xlink" x="0px" y="0px"
	 width="100px" height="100px" viewBox="0 0 100 100" enable-background="new 0 0 100 100" xml:space="preserve">
<path fill="#535267" d="M81.5,30.428H65v-3.5c0-3.767-2.523-6.5-6-6.5H41c-3.729,0-7,3.037-7,6.5v3.5H17.5
	c-3.584,0-6.5,2.916-6.5,6.5v37c0,3.584,2.916,6.5,6.5,6.5h64c3.584,0,6.5-2.916,6.5-6.5v-37C88,33.344,85.084,30.428,81.5,30.428z
	 M37,26.928c0-1.799,1.944-3.5,4-3.5h18c2.072,0,3,1.758,3,3.5v3.5H37V26.928z M85,73.928c0,1.93-1.57,3.5-3.5,3.5h-64
	c-1.93,0-3.5-1.57-3.5-3.5v-37c0-1.93,1.57-3.5,3.5-3.5H34h31h16.5c1.93,0,3.5,1.57,3.5,3.5V73.928z"/>
</svg>
