<?xml version="1.0" encoding="utf-8"?>
<!-- Generator: Adobe Illustrator 17.0.0, SVG Export Plug-In . SVG Version: 6.00 Build 0)  -->
<!DOCTYPE svg PUBLIC "-//W3C//DTD SVG 1.1//EN" "http://www.w3.org/Graphics/SVG/1.1/DTD/svg11.dtd">
<svg version="1.1" id="Layer_1" xmlns="http://www.w3.org/2000/svg" xmlns:xlink="http://www.w3.org/1999/xlink" x="0px" y="0px"
	 width="100px" height="100px" viewBox="0 0 100 100" enable-background="new 0 0 100 100" xml:space="preserve">
<g id="Captions">
</g>
<path fill="#535267" d="M76.601,39.166h-0.013c-0.021-0.451-0.072-0.927-0.153-1.441c-0.027-0.18-0.065-0.356-0.139-0.687
	c-0.079-0.384-0.168-0.766-0.278-1.149c-0.081-0.274-0.17-0.544-0.262-0.8c-0.103-0.294-0.213-0.583-0.357-0.939
	c-0.108-0.262-0.221-0.531-0.431-0.964c-0.132-0.271-0.27-0.529-0.424-0.817c-1.243-2.317-2.729-4.101-3.513-4.967l-8.042-8.416
	c-0.956-0.904-2.067-1.727-3.399-2.517c-0.12-0.07-0.238-0.146-0.357-0.221c-0.214-0.136-0.428-0.271-0.664-0.389l-0.525-0.242
	c-0.31-0.14-0.614-0.277-0.91-0.387l-0.477-0.17c-0.319-0.108-0.626-0.205-0.892-0.275c-0.155-0.044-0.31-0.087-0.438-0.114
	c-0.295-0.072-0.574-0.131-0.83-0.173l-0.325-0.058c-0.289-0.041-0.563-0.069-0.882-0.09H31.531c-4.516,0-8.19,3.674-8.19,8.189
	v54.93c0,4.516,3.674,8.188,8.19,8.188H68.47c4.516,0,8.188-3.673,8.188-8.188v-37.8L76.601,39.166z M63.772,35.375h5.474
	c2.367,0,4.297,1.925,4.301,4.3l0.057,0.5v37.291c0,2.831-2.303,5.135-5.134,5.135H31.531c-2.832,0-5.136-2.304-5.136-5.135v-54.93
	c0-2.832,2.304-5.136,5.136-5.136h20.59l0.099-0.003l0.045,0.002c2.331,0.079,4.157,1.961,4.157,4.285v6.339
	C56.422,32.077,59.72,35.375,63.772,35.375z M69.248,32.323h-5.525c-2.37,0-4.298-1.928-4.298-4.299v-6.34
	c0-0.644-0.086-1.285-0.252-1.905c0.582,0.417,1.14,0.875,1.664,1.37l7.957,8.333c0.519,0.572,1.42,1.643,2.329,3.082
	C70.517,32.404,69.89,32.323,69.248,32.323z"/>
</svg>
