<?xml version="1.0" encoding="utf-8"?>
<!-- Generator: Adobe Illustrator 17.0.0, SVG Export Plug-In . SVG Version: 6.00 Build 0)  -->
<!DOCTYPE svg PUBLIC "-//W3C//DTD SVG 1.1//EN" "http://www.w3.org/Graphics/SVG/1.1/DTD/svg11.dtd">
<svg version="1.1" id="Layer_1" xmlns="http://www.w3.org/2000/svg" xmlns:xlink="http://www.w3.org/1999/xlink" x="0px" y="0px"
	 width="50px" height="50px" viewBox="0 0 50 50" enable-background="new 0 0 50 50" xml:space="preserve">
<path fill="#3C3B4C" d="M19.22,9.785l-0.044-0.003c-0.144-0.009-0.29-0.009-0.435,0c-1.133,0.067-2.172,0.686-2.779,1.651
	c-0.103,0.164-0.192,0.334-0.264,0.503l-0.051,0.109l-2.051,3.906c-0.11,0.172-0.205,0.353-0.282,0.539
	c-0.18,0.43-0.271,0.889-0.271,1.36c0,1.163,0.574,2.252,1.533,2.914c0.053,0.035,0.107,0.073,0.164,0.107l0.038,0.025l17.1,11.165
	h-0.751h-1.103H14.528l-1.029-2.011H6.217L0.765,40.463h34.474l0.042,0.003c0.135,0.008,0.275,0.008,0.411,0
	c1.157-0.066,2.21-0.698,2.816-1.693c0.075-0.121,0.249-0.479,0.249-0.479l3.013-5.749c0.078-0.128,0.148-0.263,0.21-0.402
	c0.201-0.452,0.303-0.934,0.303-1.431c0-1.088-0.491-2.1-1.348-2.777c-0.17-0.135-0.351-0.252-0.538-0.352l-0.115-0.067
	l-13.61-8.888l-0.702-0.443l6.081,0.001v0.001h3.426l1.024,2.001h7.284l1.048-2.001h0.034v-0.063l4.37-8.342L19.22,9.785z"/>
</svg>
