<?xml version="1.0" encoding="utf-8"?>
<!-- Generator: Adobe Illustrator 17.0.0, SVG Export Plug-In . SVG Version: 6.00 Build 0)  -->
<!DOCTYPE svg PUBLIC "-//W3C//DTD SVG 1.1//EN" "http://www.w3.org/Graphics/SVG/1.1/DTD/svg11.dtd">
<svg version="1.1" id="Layer_1" xmlns="http://www.w3.org/2000/svg" xmlns:xlink="http://www.w3.org/1999/xlink" x="0px" y="0px"
	 width="97px" height="97px" viewBox="0 0 97 97" enable-background="new 0 0 97 97" xml:space="preserve">
<g>
	<path fill="#535267" d="M93.461,61.106c1.755,1.755,1.755,4.599,0,6.354l0,0c-1.755,1.755-4.599,1.755-6.354,0L55.541,35.894
		c-1.755-1.755-1.755-4.599,0-6.354l0,0c1.755-1.755,4.599-1.755,6.354,0L93.461,61.106z"/>
	<path fill="#535267" d="M61.895,67.46c-1.755,1.755-4.599,1.755-6.354,0l0,0c-1.755-1.755-1.755-4.599,0-6.354L87.107,29.54
		c1.755-1.755,4.599-1.755,6.354,0l0,0c1.755,1.755,1.755,4.599,0,6.354L61.895,67.46z"/>
	<circle fill="#535267" cx="24.627" cy="48.5" r="23.619"/>
</g>
</svg>
