<?xml version="1.0" encoding="utf-8"?>
<!-- Generator: Adobe Illustrator 17.0.0, SVG Export Plug-In . SVG Version: 6.00 Build 0)  -->
<!DOCTYPE svg PUBLIC "-//W3C//DTD SVG 1.1//EN" "http://www.w3.org/Graphics/SVG/1.1/DTD/svg11.dtd">
<svg version="1.1" id="Layer_1" xmlns="http://www.w3.org/2000/svg" xmlns:xlink="http://www.w3.org/1999/xlink" x="0px" y="0px"
	 width="50px" height="50px" viewBox="0 0 50 50" enable-background="new 0 0 50 50" xml:space="preserve">
<g id="GFL9u5_4_">
	<g>
		<path fill="#3C3B4C" d="M15.493,35.457c-0.498-0.401-0.89-0.167-1.475-0.161c-0.642,0.006-1.268-0.082-1.903-0.157
			c-0.345-0.041-0.985-0.097-0.912-0.604c0.075-0.522,1.321-0.562,1.705-0.654c1.393-0.335,2.787,0.113,4.186-0.134
			c0.504-0.089,1.291-0.449,1.789-0.227c0.299,0.134,0.448,0.384,0.811,0.386c0.519,0.003,1.038,0.005,1.557,0.005
			c1.501,0.002,3.062,0.106,4.554-0.075c1.492-0.182,2.981,0.112,4.487,0.079c0.51-0.011,1.46-0.001,1.698-0.583
			c0.183-0.448,0.049-1.173,0.007-1.633c-0.044-0.467-0.296-1.009-0.104-1.441c0.325-0.731,0.657-1.451,0.751-2.258
			c0.175-1.496,0.398-3.018,0.508-4.52c0.055-0.744,0.061-1.492,0.011-2.237c-0.052-0.769-0.747-0.929-1.396-1.033
			c-0.7-0.112-1.374,0.078-2.067-0.014c-0.611-0.081-1.337-0.065-1.94,0.067c-1.486,0.326-3.172,0.191-4.687,0.164
			c-0.892-0.016-2.499-0.711-2.782,0.571c-0.15,0.679-0.158,1.42-0.237,2.111c-0.06,0.525,0.109,1.583-0.31,1.971
			c-0.485,0.45-0.604-0.742-0.61-0.902c-0.027-0.679,0.091-1.351,0.013-2.029c-0.063-0.548-0.133-1.363-0.574-1.752
			c-0.536-0.473-1.716-0.366-2.391-0.424c-2.34-0.201-4.702-0.194-7.05-0.267c-0.46-0.014-1.98,0.325-1.624-0.704
			c0.1-0.289,0.435-0.424,0.572-0.715c0.192-0.407,0.504-0.765,0.764-1.129c-0.33-0.11-0.876-0.177-0.832-0.637
			c0.025-0.258-0.161-0.93,0.056-1.119c0.381-0.332,0.787,0.148,1.157-0.215c0.342-0.336,0.493-0.626,0.999-0.418
			c0.644,0.265,0.904,0.058,1.539-0.006c0.517-0.052,0.477,0.636,0.934,0.703c0.479,0.07,0.967-0.101,1.42,0.138
			c0.59,0.311,0.834,0.878,1.537,1.047c0.327,0.078,1.196,0.363,1.345-0.118c0.138-0.444,0.002-0.892,0.619-0.992
			c0.577-0.093,0.678,0.582,0.92,0.931c0.286,0.413,0.928,0.166,1.333,0.162c1.371-0.011,2.756,0.266,4.113,0.432
			c0.749,0.092,1.496,0.214,2.252,0.234c0.765,0.02,1.419-0.437,2.179-0.453c0.894-0.019,3.081,0.909,3.791,0.177
			c0.401-0.414-0.137-1.266-0.296-1.681c-0.298-0.778-0.485-1.661-0.838-2.408c-0.333-0.707-0.678-1.408-1.037-2.102
			c-0.329-0.636-0.768-1.042-1.16-1.615c-0.145-0.211-0.08-0.605,0.249-0.6c0.265,0.003,0.531,0.383,0.685,0.54
			c0.284,0.29,1.022,1.344,1.48,1.32c0.472-0.025,0.343-0.641,0.904-0.12c0.485,0.451,0.655,1.225,0.884,1.826
			c0.563,1.48,0.861,3.027,1.371,4.506c0.333,0.964,2.342,0.414,3.108,0.494c0.512,0.053,1.112,0.374,1.59,0.376
			c0.753,0.004,1.077,0.442,1.736,0.095c0.687-0.362,1.883,0.367,2.362,0.801c-0.649,0.331-1.039,0.262-1.775,0.139
			c-1.047-0.175-0.764,0.193,0.032,0.284c0.563,0.064,0.738,0.484,0.59,1.018c-0.174,0.629-1.035,0.753-1.594,0.772
			c-0.745,0.026-1.491,0.018-2.237,0.011c-0.634-0.005-1.292,0.229-1.902,0.143c-0.319-0.045-1.267-0.508-1.465-0.034
			c-0.083,0.2,0.083,0.538,0.062,0.762c-0.039,0.419-0.105,0.802-0.1,1.227c0.018,1.494,0.014,2.992-0.062,4.485
			c-0.033,0.644-0.022,1.319-0.122,1.956c-0.035,0.225,0.142,0.417,0.112,0.668c-0.048,0.406-0.183,0.759-0.184,1.176
			c-0.002,0.737-0.758,2.861,0.503,2.842c0.671-0.01,1.353,0.056,1.977,0.318c0.611,0.257,1.191,1.062,0.133,1.164
			c-0.794,0.076-3.324-0.616-3.059,1.015c0.237,1.457,2.522,0.392,3.476,1.134c0.288,0.224,0.527,0.918,0.05,1.101
			c-0.485,0.187-1.494,0.039-2.007-0.026c-0.721-0.092-1.289-0.139-1.982,0.16c-0.618,0.267-0.463,1.016-0.484,1.539
			c-0.022,0.554-0.793,3.453-1.213,1.757c-0.178-0.722-0.255-1.45-0.3-2.19c-0.06-0.993-0.037-1.329-1.049-1.599
			c-1.464-0.391-3.069-0.141-4.567-0.148c-1.606-0.008-3.254-0.215-4.872-0.258c-2.187-0.057-4.275-0.033-6.449,0.202
			c-1.084,0.117-2.183,0.064-3.269,0.177c-1.004,0.104-1.985,0.436-2.998,0.554c-0.533,0.062-2.121,0.423-1.647-0.63
			c0.296-0.658,2.127-0.756,2.751-0.892c1.094-0.238,2.209-0.381,3.311-0.575C14.022,36.511,14.614,36.153,15.493,35.457
			C15.23,35.245,15.237,35.66,15.493,35.457z"/>
		<path fill="#3C3B4C" d="M14.014,9.554c0.097-0.472,0.223-0.88,0.182-1.369c-0.044-0.519-0.185-1.064,0.036-1.562
			c0.617-1.385,1.093,1.06,1.182,1.475c0.179,0.832,0.735,2.473,0.067,3.203C14.597,12.266,14.149,10.025,14.014,9.554
			C14.097,9.147,14.148,10.024,14.014,9.554z"/>
		<path fill="#3C3B4C" d="M14.285,24.245c-0.052,0.601,0.1,2.207-0.337,2.667c-0.814,0.857-1.206-0.697-1.087-1.301
			c0.097-0.496,0.119-0.822,0.08-1.34c-0.038-0.508-0.267-1.355-0.056-1.832c0.212-0.479,0.847,0.029,0.948,0.329
			C13.997,23.256,14.137,23.752,14.285,24.245C14.195,25.276,14.189,23.926,14.285,24.245z"/>
		<path fill="#3C3B4C" d="M14.477,3.564c0.076,0.402,0.503,1.568-0.193,1.673c-1.096,0.165-0.615-1.602-0.628-2.123
			c-0.01-0.392-0.247-0.765-0.337-1.142c-0.085-0.356,0.289-0.529,0.506-0.728C14.057,1.525,14.837,3.488,14.477,3.564
			C14.534,3.871,14.515,3.556,14.477,3.564z"/>
		<path fill="#3C3B4C" d="M19.974,26.343c-0.099,0.495-0.079,1.313-0.443,1.706c-0.369,0.398-0.607-0.586-0.619-0.78
			c-0.026-0.413,0.05-1.251,0.437-1.502C19.914,25.399,19.751,26.294,19.974,26.343C19.876,26.835,19.943,26.336,19.974,26.343z"/>
		<path fill="#3C3B4C" d="M19.722,11.624c-0.483,1.28-1.148-0.062-1.11-0.831c0.007-0.142,0.23-0.919,0.523-0.806
			C19.719,10.211,19.648,11.122,19.722,11.624C19.681,11.735,19.651,11.144,19.722,11.624z"/>
		<path fill="#3C3B4C" d="M10.467,35.097c-0.447-0.041-0.899-0.05-1.341-0.136c-0.526-0.103-0.512-0.707,0.001-0.772
			c0.453-0.057,0.917-0.06,1.368,0.02c0.141,0.064,0.246,0.167,0.316,0.308C11.043,34.864,10.759,34.875,10.467,35.097
			C9.971,35.051,10.632,34.971,10.467,35.097z"/>
		<path fill="#3C3B4C" d="M16.745,13.57c-0.235,1.052-1.147,0.773-1.269-0.159c-0.048-0.367,0.012-0.718,0.385-0.874
			C16.264,12.368,16.586,13.301,16.745,13.57C16.648,14.005,16.54,13.223,16.745,13.57z"/>
		<path fill="#3C3B4C" d="M19.907,15.206c-0.043,0.275-0.138,0.64-0.417,0.773c-0.288,0.137-0.765-0.047-0.755-0.406
			c0.009-0.304,0.343-1.098,0.619-1.25C19.689,14.139,19.848,15.032,19.907,15.206C19.81,15.816,19.822,14.957,19.907,15.206z"/>
	</g>
</g>
</svg>
